<svg width="128" height="128" xmlns="http://www.w3.org/2000/svg">

 <g>
  <title>Layer 1</title>
  <path stroke="null" id="svg_4" d="m116.77145,31.2356c-0.12026,21.10771 -0.21454,42.21142 -0.3348,63.31513c0,1.33072 -0.02275,2.63347 -0.02275,3.9602c-32.12421,9.97441 -50.06346,20.1646 -58.74543,25.7872c-1.24492,0.80323 -3.2537,2.10598 -4.42711,2.96516c4.78466,-4.29588 27.96363,-24.54041 59.12897,-31.84939c0.02276,0 -0.02275,0 0,0c0.0325,-3.48864 -1.61873,-36.11727 -1.91452,-52.26974c0,-0.10789 0,0 0.04876,-0.33168a140.09448,172.23441 0 0 0 -24.42065,32.51674c-3.2537,-7.56073 -14.80581,-34.73061 -15.42989,-41.62798c0,0 -9.13377,23.56934 -7.65156,56.38979c0,0 -19.82776,-10.05434 -34.63682,-5.87036c0,0 13.63564,9.58279 25.28202,28.64046c-1.72274,-1.57848 -29.1078,-26.8382 -40.01307,-32.04919c0,0 23.05546,-9.19116 43.98511,0.5275c0,0 1.93727,-40.80077 13.99319,-64.00647c0,0 9.7091,40.40916 14.9976,47.61023c0,0 21.62201,-28.3887 30.16094,-33.70759zm-39.20045,-24.69626c0,3.06106 -2.1453,5.54267 -4.78466,5.54267c-2.64262,0 -4.78468,-2.47762 -4.78468,-5.54267c0,-3.05706 2.14206,-5.53867 4.78468,-5.53867s4.7814,2.47762 4.7814,5.53867l0.00326,0zm49.52064,16.78786c0,2.6095 -1.83,4.72746 -4.08257,4.72746s-4.08257,-2.11796 -4.08257,-4.72746s1.82675,-4.72745 4.08257,-4.72745c2.25257,0 4.08257,2.11796 4.08257,4.72745zm-117.97516,57.54868c0,2.61349 -1.82675,4.72745 -4.08257,4.72745s-4.08257,-2.11796 -4.08257,-4.72745s1.82675,-4.72346 4.08257,-4.72346s4.08257,2.11797 4.08257,4.72346z" fill="#d80000"/>
 </g>
</svg>