<svg xmlns="http://www.w3.org/2000/svg" width="128" height="128"><g stroke="null"><path d="M42.589 114.599l-.244.01c-.41.015-.802.025-1.209.021q-.722.002-1.43-.031c-10.398-.412-19.635-5.263-24.125-12.663a.408.384 0 01-.032-.325.4.4 0 01.24-.235l1.568-.58a.427.427 0 01.536.21c3.333 7.34 11.903 12.368 21.828 12.808l.135.007c.438.018.854.025 1.278.025.47 0 .928-.007 1.387-.032 13.074-.574 23.292-9.05 23.292-19.294 0-6.151-3.805-11.994-10.176-15.63l-27.96-15.27c-5.972-3.41-9.534-8.905-9.534-14.704 0-9.463 9.002-17.224 20.938-18.054q.499-.045 1.029-.057c.66-.032 1.384-.032 2.064 0 .34.008.684.024 1.027.057 8.036.551 15.21 4.482 18.705 10.259a.37.37 0 01.023.342.415.39 0 01-.271.23l-1.642.439a.417.393 0 01-.5-.23c-2.417-5.628-8.85-9.654-16.392-10.259-.32-.023-.65-.046-.983-.054a22 22 0 00-2 0c-.347.008-.674.03-1 .054-9.918.795-17.4 7.28-17.4 15.088 0 4.738 2.761 9.128 7.575 12.032L56.934 73.81c7.831 4.155 12.51 11.075 12.51 18.51 0 11.893-11.797 21.68-26.855 22.279z"/><path d="M75.93 73.11a56.6 56.6 0 0110.524-3.219.4.4 0 01.125-.051c.232-.047.457-.085.684-.125.171-.034.347-.064.513-.095l.066-.011a73.5 73.5 0 0113.36-1.215c.229 0 .416.175.416.393v3.297a.4.4 0 01-.278.37.43.43 0 01-.463-.125c-2.049-2.412-6.819-3.055-13.467-1.839a56 56 0 00-11.48 3.476v38.14c.002.96.829 1.74 1.848 1.74.23 0 .417.174.417.392s-.187.393-.417.393h-7.917c-.23 0-.417-.175-.417-.393s.186-.392.417-.392c1.02-.002 1.847-.78 1.848-1.74V35.6c-.001-.96-.829-1.74-1.848-1.74-.23 0-.417-.176-.417-.393a.417.392 0 01.417-.393h40.06a.43.43 0 01.348.186c.006.009.017.014.022.024l6.246 11.154a.38.38 0 01-.175.53.413.389 0 01-.194.045.418.394 0 01-.37-.21l-.004-.01c-3.383-6.03-11.323-10.935-17.71-10.935H75.929z"/><path fill="#d80000" d="M39.25 11.9c-.037 5.282-.066 10.563-.103 15.844 0 .333-.007.659-.007.991-9.883 2.496-15.402 5.046-18.073 6.453-.383.201-1.001.527-1.362.742 1.472-1.075 8.603-6.141 18.191-7.97.007 0-.007 0 0 0 .01-.873-.498-9.038-.589-13.08 0-.027 0 0 .015-.083a43.1 43.1 0 00-7.513 8.137c-1.001-1.892-4.555-8.691-4.747-10.417 0 0-2.81 5.898-2.354 14.111 0 0-6.1-2.516-10.656-1.469 0 0 4.195 2.398 7.778 7.167-.53-.395-8.955-6.716-12.31-8.02 0 0 7.093-2.3 13.532.132 0 0 .596-10.21 4.305-16.017 0 0 2.987 10.112 4.614 11.914 0 0 6.652-7.104 9.279-8.435zM27.19 5.72c0 .766-.66 1.387-1.472 1.387-.813 0-1.472-.62-1.472-1.387 0-.765.659-1.386 1.472-1.386s1.471.62 1.471 1.386zm15.235 4.201c0 .653-.563 1.183-1.256 1.183s-1.256-.53-1.256-1.183.562-1.183 1.256-1.183c.693 0 1.256.53 1.256 1.183zM6.13 24.322c0 .654-.562 1.183-1.256 1.183s-1.256-.53-1.256-1.183.562-1.182 1.256-1.182 1.256.53 1.256 1.182z"/></g></svg>